<svg width="32" height="32" viewBox="0 0 32 32" fill="none" xmlns="http://www.w3.org/2000/svg">
<path d="M22.668 4.66797H9.33464C5.33464 4.66797 2.66797 6.66797 2.66797 11.3346V20.668C2.66797 25.3346 5.33464 27.3346 9.33464 27.3346H22.668C26.668 27.3346 29.3346 25.3346 29.3346 20.668V11.3346C29.3346 6.66797 26.668 4.66797 22.668 4.66797ZM23.2946 12.788L19.1213 16.1213C18.2413 16.828 17.1213 17.1746 16.0013 17.1746C14.8813 17.1746 13.748 16.828 12.8813 16.1213L8.70797 12.788C8.2813 12.4413 8.21464 11.8013 8.54797 11.3746C8.89464 10.948 9.5213 10.868 9.94797 11.2146L14.1213 14.548C15.1346 15.3613 16.8546 15.3613 17.868 14.548L22.0413 11.2146C22.468 10.868 23.108 10.9346 23.4413 11.3746C23.788 11.8013 23.7213 12.4413 23.2946 12.788Z" fill="white"/>
</svg>
