<svg width="32" height="32" viewBox="0 0 32 32" fill="none" xmlns="http://www.w3.org/2000/svg">
<path d="M24 2.66797H8C5.78667 2.66797 4 4.4413 4 6.62797V21.1746C4 23.3613 5.78667 25.148 8 25.148H9.01333C10.0667 25.148 11.0933 25.5613 11.84 26.308L14.12 28.5613C15.16 29.588 16.84 29.588 17.88 28.5613L20.16 26.308C20.9067 25.5613 21.9333 25.148 22.9867 25.148H24C26.2133 25.148 28 23.3613 28 21.1746V6.62797C28 4.4413 26.2133 2.66797 24 2.66797ZM16 7.4013C17.44 7.4013 18.6 8.57463 18.6 10.0013C18.6 11.4146 17.48 12.548 16.0933 12.6013C16.04 12.6013 15.96 12.6013 15.8933 12.6013C14.4933 12.548 13.3867 11.4146 13.3867 10.0013C13.4 8.57463 14.56 7.4013 16 7.4013ZM19.6667 19.588C17.6533 20.9346 14.3467 20.9346 12.3333 19.588C10.56 18.4146 10.56 16.468 12.3333 15.2813C14.36 13.9346 17.6667 13.9346 19.6667 15.2813C21.44 16.468 21.44 18.4013 19.6667 19.588Z" fill="white"/>
</svg>
