<svg width="261" height="88" viewBox="0 0 261 88" fill="none" xmlns="http://www.w3.org/2000/svg">
<path d="M194.492 67.1981C198.783 69.9286 204.378 72.269 210.142 73.9002C215.779 75.4605 221.585 76.3116 226.381 76.0988C230.84 75.8861 234.837 74.9641 238.455 73.3683C242.073 71.7371 245.312 69.4322 248.215 66.418L248.678 66.7371C246.869 68.6166 244.933 70.2123 242.872 71.5598C242.115 72.0563 241.694 72.6946 241.568 73.5102L241.315 75.5669L241.021 73.6165C241.021 73.4392 240.853 73.262 240.642 73.191C240.432 73.1201 240.222 73.1201 240.011 73.191C239.591 73.4038 239.17 73.6166 238.707 73.7939C235.005 75.4605 230.924 76.3825 226.381 76.5953C223.057 76.7371 219.313 76.418 215.485 75.6733C215.148 75.6024 214.812 75.6733 214.517 75.8506C214.223 76.0279 214.054 76.2761 214.012 76.5598L213.549 80.8506L213.129 76.808C213.003 75.7797 212.245 74.9641 211.067 74.6449C210.689 74.5385 210.31 74.4322 209.931 74.3258C204.084 72.6946 198.446 70.3187 194.113 67.5527L194.492 67.1272V67.1981Z" fill="url(#paint0_radial_2187_8053)"/>
<path d="M169.121 68.3342C165.293 71.1356 160.412 73.5115 154.775 75.2845C153.723 75.6037 153.05 76.3838 153.008 77.3058L152.461 86.4193L151.914 77.3058C151.914 77.0221 151.746 76.7739 151.452 76.5966C151.157 76.4193 150.821 76.3838 150.526 76.4547C143.08 78.3342 134.582 79.2916 125.537 79.1498C124.611 79.1498 123.812 79.7172 123.77 80.4973L123.307 85.9938L122.802 80.3555C122.718 79.6108 122.045 79.0434 121.161 79.0079C111.401 78.4406 101.22 76.5611 91.25 73.086C91.0817 73.015 90.9555 73.0505 90.7872 73.086C90.661 73.1569 90.5769 73.2633 90.5769 73.4051L90.2403 77.9796L89.9458 73.5469C89.9458 72.9441 89.4831 72.4122 88.8099 72.164C88.4734 72.0576 88.1789 71.9157 87.8423 71.7739C87.632 71.703 87.4216 71.703 87.2534 71.7739C87.043 71.8803 86.9589 72.0221 86.9168 72.1994L86.3699 79.6817L85.8651 72.2704C85.823 71.4193 85.234 70.7101 84.3506 70.32C81.3215 69.0079 78.2925 67.554 75.3477 65.9228L77.1567 65.3555C92.8907 74.0434 108.877 78.086 124.779 78.5115C142.954 78.9725 158.014 75.2491 167.859 67.6959L169.121 68.2633V68.3342Z" fill="url(#paint1_radial_2187_8053)"/>
<path d="M186.198 67.9087C181.655 70.7456 177.322 73.1569 173.031 75.1782C172.021 75.6746 171.39 76.4902 171.348 77.4832L171.095 81.4193L170.801 77.4122C170.801 77.164 170.633 76.9512 170.38 76.8094C170.128 76.6675 169.833 76.6675 169.539 76.8094C165.458 78.547 161.504 79.9299 157.633 80.9583C156.876 81.1711 156.371 81.703 156.329 82.3768L156.077 87.5186L155.782 82.164C155.782 81.9867 155.656 81.8094 155.488 81.703C155.319 81.5966 155.109 81.5611 154.899 81.5966C150.019 82.7314 145.223 83.3342 140.469 83.4761C138.576 83.547 136.682 83.547 134.831 83.4761C134.2 83.4761 133.611 83.8661 133.569 84.398L133.275 87.3413L132.98 84.2207C132.938 83.7243 132.475 83.3342 131.887 83.2987C120.612 82.4477 109.421 79.2916 97.5156 74.8945L97.6839 74.5754C112.577 80.0718 126.291 83.6179 140.427 83.1214C154.604 82.6604 169.202 78.1569 185.946 67.625L186.198 67.9087Z" fill="url(#paint2_radial_2187_8053)"/>
<path fill-rule="evenodd" clip-rule="evenodd" d="M8.49806 2.41104C25.6625 1.9855 41.1862 0.602532 58.5609 0.0351562C70.3404 0.247922 85.9483 0.850753 100.715 0.389761C127.808 0.921675 155.91 0.95714 163.272 0.850757C192.174 1.66636 222.254 2.55289 252.965 3.33303C254.227 3.54579 257.13 5.35431 257.634 6.4536C258.56 9.96424 259.485 12.9075 260.159 15.9926C260.327 18.1203 260.958 24.5387 260.958 28.794C260.117 41.8082 258.896 54.3259 258.308 63.8649C257.592 64.8933 252.081 67.2337 248.926 68.0493C217.879 69.0068 185.948 69.5741 151.745 70.6025C121.118 69.3614 82.5406 68.0139 51.5774 68.333C35.2543 67.5174 20.3617 67.1273 7.15184 67.1983C5.6794 66.6663 3.19729 64.716 2.65039 63.9004C1.22002 50.9571 0.588975 38.9358 0 26.0281C0.462766 18.333 2.06141 12.943 2.60832 6.6309C3.23936 5.60253 7.02563 2.97842 8.45599 2.51743L8.49806 2.41104Z" fill="url(#paint3_radial_2187_8053)"/>
<path fill-rule="evenodd" clip-rule="evenodd" d="M5.76354 24.5376C6.68907 20.0341 8.62427 16.027 9.88636 10.566L2.60832 6.52344C2.10348 12.871 0.462766 18.2256 0 25.9206L5.72147 24.5022L5.76354 24.5376Z" fill="url(#paint4_radial_2187_8053)"/>
<path fill-rule="evenodd" clip-rule="evenodd" d="M2.60938 6.5591L9.88742 10.6016C10.1398 10.4243 11.9068 8.97045 12.1592 8.79314L8.49912 2.41016C7.06875 2.90661 3.28249 5.53072 2.65145 6.52363L2.60938 6.5591Z" fill="url(#paint5_radial_2187_8053)"/>
<path fill-rule="evenodd" clip-rule="evenodd" d="M8.49609 2.41104L12.1562 8.79402C28.1426 8.33303 48.2519 6.41814 62.9342 5.24793L58.559 0.0351562C41.1842 0.602532 25.7026 1.9855 8.49609 2.41104Z" fill="url(#paint6_radial_2187_8053)"/>
<path fill-rule="evenodd" clip-rule="evenodd" d="M58.5195 0.0351562L62.8948 5.24793C75.3053 5.177 90.3242 5.24792 102.608 6.91458L100.926 0.425229C100.926 0.425229 100.757 0.425229 100.673 0.425229C85.8648 0.886222 70.257 0.247916 58.5195 0.0706113V0.0351562Z" fill="url(#paint7_radial_2187_8053)"/>
<path fill-rule="evenodd" clip-rule="evenodd" d="M100.926 0.425781L102.609 6.91514C115.86 5.88677 127.009 5.85132 139.546 7.34068C147.539 6.87968 154.144 6.84422 161.548 5.85131L163.231 0.851309C155.911 0.957692 127.934 0.922235 100.926 0.425781Z" fill="url(#paint8_radial_2187_8053)"/>
<path fill-rule="evenodd" clip-rule="evenodd" d="M163.273 0.851562L161.59 5.85156C189.019 7.41184 221.665 8.33384 249.347 9.68135L252.923 3.33383C222.212 2.55369 192.132 1.66717 163.231 0.851562H163.273Z" fill="url(#paint9_radial_2187_8053)"/>
<path fill-rule="evenodd" clip-rule="evenodd" d="M252.92 3.33234L249.344 9.67986C249.849 9.96355 250.353 10.3536 250.816 10.8146L257.631 6.41745C257.085 5.31816 254.182 3.5451 252.962 3.29688L252.92 3.33234Z" fill="url(#paint10_radial_2187_8053)"/>
<path fill-rule="evenodd" clip-rule="evenodd" d="M257.636 6.41827L250.82 10.8154C251.115 12.8722 251.241 14.9289 251.704 16.9147C252.924 20.9927 254.733 26.702 255.069 28.7587H260.959C260.959 24.4679 260.328 18.0495 260.16 15.9218C259.487 12.8722 258.561 9.92891 257.636 6.38281V6.41827Z" fill="url(#paint11_radial_2187_8053)"/>
<path fill-rule="evenodd" clip-rule="evenodd" d="M260.957 28.7227H255.068C254.058 38.9709 254.016 50.5666 253.301 61.1695L258.349 63.7936C258.938 54.2546 260.158 41.7723 261 28.7227H260.957Z" fill="url(#paint12_radial_2187_8053)"/>
<path fill-rule="evenodd" clip-rule="evenodd" d="M253.256 61.1719C252.162 61.6329 250.9 62.0939 249.975 62.413L248.965 67.9804C252.12 67.1648 257.631 64.8243 258.346 63.796L253.298 61.1719H253.256Z" fill="url(#paint13_radial_2187_8053)"/>
<path fill-rule="evenodd" clip-rule="evenodd" d="M249.978 62.375C218.047 63.3679 183.592 64.5736 151.703 65.531L151.787 70.531C186.032 69.5027 217.921 68.9353 248.968 67.9778L249.978 62.4105V62.375Z" fill="url(#paint14_radial_2187_8053)"/>
<path fill-rule="evenodd" clip-rule="evenodd" d="M151.658 65.5313C137.986 64.432 111.566 62.4107 101.175 62.3043C89.4372 62.0916 72.9459 62.5171 56.4546 62.6944L51.9531 68.2618C82.8322 67.9426 121.2 69.2901 151.7 70.5313L151.616 65.5313H151.658Z" fill="url(#paint15_radial_2187_8053)"/>
<path fill-rule="evenodd" clip-rule="evenodd" d="M51.9995 68.2606L56.5009 62.6932C43.6697 62.0549 23.6866 60.3173 10.7292 60.2109L7.19531 67.1613C20.4052 67.0904 35.2978 67.4804 51.6208 68.296C51.747 68.296 51.8733 68.296 51.9995 68.296V68.2606Z" fill="url(#paint16_radial_2187_8053)"/>
<path fill-rule="evenodd" clip-rule="evenodd" d="M7.19766 67.1259L10.7315 60.1756C10.0584 60.1047 9.04873 59.6082 8.75424 59.2891L2.73828 63.8281C3.28519 64.6437 5.76729 66.5586 7.23973 67.1259H7.19766Z" fill="url(#paint17_radial_2187_8053)"/>
<path fill-rule="evenodd" clip-rule="evenodd" d="M2.69246 63.865L8.70842 59.326C7.53047 47.8012 6.31044 36.1345 5.72147 24.5742L0 25.9927C0.631044 38.9359 1.22002 50.9572 2.65039 63.865H2.69246Z" fill="url(#paint18_radial_2187_8053)"/>
<path fill-rule="evenodd" clip-rule="evenodd" d="M46.3595 19.007C49.5989 17.234 52.7961 15.3546 55.9093 13.1205C57.3397 11.2056 58.77 9.25527 60.2425 7.34038C60.9156 6.41839 61.2101 5.85101 60.4949 5.46094C46.065 6.63115 27.2599 8.36874 12.1569 8.82973C11.9045 8.97158 10.1375 10.4609 9.88512 10.6382C8.66511 15.7092 6.94026 19.539 5.97266 23.6524C6.14093 23.8652 6.26714 23.9716 6.47749 24.0425C7.86578 24.6099 34.7903 20.3191 41.3111 19.3971C42.6153 19.2198 45.3078 19.2553 46.4016 19.0425L46.3595 19.007Z" fill="url(#paint19_radial_2187_8053)"/>
<path fill-rule="evenodd" clip-rule="evenodd" d="M56.8358 13.4764C54.4379 14.7885 52.124 16.1715 49.8102 17.6254C48.5902 18.4055 47.875 18.9729 47.875 19.1502C47.875 19.292 48.5902 19.6821 50.1468 20.0367C78.3334 26.2424 104.921 33.9729 129.827 44.1857C131.047 44.2566 131.173 43.9729 132.309 42.6963C138.998 34.9658 147.875 28.4764 158.182 22.6963C159.949 21.7034 159.696 21.4197 159.654 20.4977C159.444 16.5615 159.991 10.9587 160.537 9.11474C160.159 12.98 160.117 16.8807 160.243 20.214C160.243 21.0651 160.201 21.4197 161.379 20.9587C163.398 20.1431 169.33 17.0935 175.851 14.4693C182.414 11.8452 189.523 9.75303 191.963 8.37005C193.52 7.48353 192.552 7.37716 191.459 7.34169C181.194 6.91616 171.097 6.45516 161.631 5.92325C154.227 6.91616 147.58 6.95161 139.629 7.4126C127.05 5.92324 115.944 5.99417 102.692 6.98708C90.4495 5.35587 75.4727 5.24948 63.1042 5.32041C60.7904 6.84523 58.2241 10.9942 56.92 13.5474L56.8358 13.4764Z" fill="url(#paint20_radial_2187_8053)"/>
<path fill-rule="evenodd" clip-rule="evenodd" d="M127.85 44.2916C112.326 38.0859 70.9714 24.4689 51.2408 20.781C44.6359 19.5398 43.3738 20.1072 36.853 20.9228C25.1155 22.4122 7.74079 24.4689 6.26835 24.8944C6.10008 24.9299 5.97387 25.0363 5.84766 25.1781C6.43663 36.5256 7.61458 47.9796 8.79253 59.2916C9.08701 59.6108 10.0967 60.0718 10.7698 60.1781C13.7147 60.1781 17.0802 60.32 20.6141 60.4973C32.5198 61.0646 46.6552 62.1994 56.5416 62.6959C72.9908 62.5186 89.4821 62.093 101.262 62.3058C105.637 62.3412 112.789 62.7313 120.656 63.2278C129.364 63.6533 138.073 64.5398 146.823 64.7171C148.632 64.7526 150.146 64.5753 150.357 64.4334C150.778 64.1852 149.263 61.632 147.706 59.2561C142.742 55.4973 137.904 51.7029 133.108 47.6604C130.921 45.8164 130.71 45.3554 127.892 44.2561L127.85 44.2916Z" fill="url(#paint21_radial_2187_8053)"/>
<path fill-rule="evenodd" clip-rule="evenodd" d="M176.02 14.6791C160.791 20.7429 143.08 31.4166 133.235 42.7642C131.931 44.2535 131.931 44.6436 132.478 46.0975C137.022 50.3883 142.407 54.7145 148.717 59.1117C149.559 60.4592 150.947 62.9769 152.167 64.0407C152.588 64.4308 153.176 64.6436 154.397 64.7854C161.885 65.5656 169.457 64.75 177.03 64.7145C189.483 62.5869 201.767 60.1755 213.378 56.6294C219.142 54.8209 224.527 52.5514 229.449 49.7145C236.432 45.4592 243.248 40.9911 249.768 36.2039C251.451 34.5727 252.797 32.5159 254.017 30.4592C254.859 29.1117 255.027 28.5443 254.901 27.8351C254.859 27.6223 254.775 27.4095 254.733 27.1613C253.975 24.5372 252.713 20.1755 251.704 16.9131C251.241 14.8918 251.115 12.8705 250.82 10.8138C250.357 10.3528 249.895 9.96275 249.348 9.67906C233.614 8.89892 216.239 8.29608 199.117 7.58686C198.317 7.58686 197.476 7.51593 196.676 7.48047C195.877 7.48047 195.078 7.58685 194.279 7.87054C193.521 8.15423 193.016 8.57976 191.586 9.50174C186.664 10.9202 181.069 12.6578 176.02 14.6791Z" fill="url(#paint22_radial_2187_8053)"/>
<path fill-rule="evenodd" clip-rule="evenodd" d="M227.808 51.8445C223.012 53.6175 218.385 55.6388 213.841 57.7665C202.23 60.7806 189.777 62.9083 176.988 64.7523C192.175 64.2558 207.615 63.7593 222.802 63.2629C232.015 62.9792 241.102 62.6601 250.021 62.4118C250.989 62.0927 252.251 61.6672 253.303 61.1707C253.976 51.5253 254.06 40.9934 254.859 31.4899C254.691 31.1352 254.565 30.9579 254.438 30.9225C253.976 30.7452 250.905 35.8516 250.442 37.0927C243.963 40.9225 239.125 44.1494 233.193 48.5111C230.669 50.3906 232.057 50.426 234.497 51.8445C236.601 53.0856 238.536 54.2558 240.682 55.7097C236.559 53.7239 232.142 50.2842 227.85 51.8799L227.808 51.8445Z" fill="url(#paint23_radial_2187_8053)"/>
<path opacity="0.75" fill-rule="evenodd" clip-rule="evenodd" d="M9.55219 4.25532C26.2959 3.72341 43.5445 3.97163 60.0778 1.84397L101.474 2.44682C122.257 1.66668 142.576 2.41135 162.601 2.87234C181.491 3.29788 236.223 2.12766 251.621 5.39007C252.462 5.31915 255.197 6.4539 255.407 7.87234C258.815 11.5957 259.488 15.7092 260.54 20.2128C260.371 18.3688 260.245 16.8085 260.161 15.9574C259.488 12.9078 258.562 9.96454 257.637 6.41844C257.09 5.31915 254.187 3.5461 252.967 3.29787C222.256 2.51773 192.176 1.63122 163.275 0.815615C155.912 0.921998 127.81 0.886533 100.717 0.354618C85.9086 0.815611 70.3007 0.177305 58.5633 0C41.1886 0.567376 25.7069 1.95036 8.50045 2.37589C7.07008 2.87235 3.28382 5.49646 2.65278 6.48937C2.19001 11.9858 0.927919 16.7376 0.296875 22.9078C2.23208 17.695 4.63005 12.6596 4.04107 7.23404C6.27076 6.48936 7.78527 5.67376 9.59426 4.1844L9.55219 4.25532Z" fill="#007AFF"/>
<path fill-rule="evenodd" clip-rule="evenodd" d="M222.756 63.2638C228.856 63.1929 234.998 63.0511 241.098 62.9447C243.748 62.9447 246.399 62.8028 249.007 62.9447C249.217 62.9447 249.428 63.1929 249.428 63.3702C249.428 64.5049 249.302 65.6751 249.133 66.7744C249.47 65.4978 249.596 64.1503 250.101 62.9447C250.311 62.4128 252.835 61.5262 253.551 61.739C254.981 62.2 256.285 62.9092 257.673 63.4766C256.706 62.8383 255.78 62.2354 254.813 61.5971C253.551 60.7815 253.719 60.7106 253.803 59.3631C253.929 57.2354 254.14 55.1078 254.266 52.9801C254.266 45.4624 254.56 38.6893 255.275 31.1716C255.36 30.4624 255.36 29.4695 255.738 29.1149C255.907 28.973 259.735 28.7603 260.24 28.6893C259.861 28.6893 255.78 28.4057 255.738 28.3347C255.149 27.6255 254.644 25.0369 254.182 23.8312C253.845 22.4482 253.466 21.0652 253.13 19.6823C252.92 18.8312 252.709 17.9092 253.004 17.661C253.13 17.5546 253.677 17.2709 254.35 17.1291C255.444 16.8454 256.58 16.5617 257.673 16.3135C256.117 16.5617 254.897 16.8099 253.34 16.739C251.952 16.6681 252.162 16.1362 252.036 14.9659C251.952 14.2213 251.489 13.4057 251.405 12.661C251.279 11.5262 251.026 11.1362 252.078 10.356C253.635 9.18581 255.149 8.05106 256.706 6.88084C255.191 7.80283 253.677 8.72481 252.162 9.6468C250.479 10.6752 249.848 9.54041 250.606 7.98013C251.279 6.56169 251.952 5.14325 252.625 3.76027C251.742 5.10779 250.816 6.45531 249.933 7.80282C248.881 9.39857 248.376 9.04396 246.188 8.97304C232.179 8.65389 218.296 7.83829 204.329 6.88084C198.524 6.739 164.069 6.20708 162.554 5.21417C162.049 4.85956 162.68 3.33475 163.101 1.13617C161.46 4.96595 162.344 5.14325 157.127 5.95885C152.71 6.24254 145.263 7.05814 141.141 6.66807C140.089 6.56169 139.878 6.56169 139.878 5.67517C139.878 4.75318 139.794 3.79573 139.752 2.87375C139.626 3.90212 139.458 4.85956 139.332 5.88793C139.247 6.59715 138.616 6.31347 137.775 6.24254C133.694 5.78155 129.656 5.42695 125.533 5.24964C118.297 5.32056 112.281 5.88793 105.087 6.278C102.226 6.20708 102.142 4.0085 101.006 0.958851C101.132 1.77445 101.805 4.75318 101.469 5.35602C101.174 5.85247 100.417 5.74608 99.0289 5.6397C95.6212 5.35601 92.2136 5.07233 88.848 4.78864C83.2528 4.61134 77.6996 4.54041 72.0622 4.50495C69.2015 4.46949 64.7842 4.93049 62.5545 4.29219C62.3862 4.22127 59.4834 1.13616 59.0627 0.746094C59.4413 1.38439 60.9138 3.5475 60.7455 4.11488C60.5352 4.75317 59.1889 4.71772 58.053 4.78864C54.8978 4.96595 52.0371 5.17872 48.8819 5.24964C37.2286 6.49078 26.3746 7.30637 14.6793 7.94467C13.0806 8.01559 12.6599 8.40567 11.8606 7.27092C10.8089 5.81702 9.79919 4.39857 8.74745 2.94467C9.63091 4.93049 10.4302 6.49076 11.0613 8.5475C11.1875 8.93757 9.58884 9.6468 8.99986 9.39857C6.89638 8.51205 5.17153 7.80283 3.15218 6.80992C4.54048 7.76737 5.50808 8.61843 6.89638 9.57587C8.95779 10.9943 8.74744 10.4269 8.1164 12.5901C7.14879 15.9943 6.13913 19.3986 5.17153 22.8028C4.75083 24.2213 4.70876 24.2213 3.11011 24.7177C2.14251 25.0369 1.55354 25.4269 0.585938 25.7461C1.55354 25.5688 2.56321 25.3915 3.53081 25.2496C4.58255 25.0723 5.25566 24.8241 5.29773 25.8525C5.29773 27.2709 5.3398 28.6893 5.38187 30.1432C5.84464 35.2496 6.3074 40.3206 6.77017 45.4269C7.19087 49.6468 7.65364 53.8666 8.07433 58.0865C8.07433 58.4057 7.99019 58.7603 7.82191 59.0794C7.31707 60.0014 4.75083 62.0581 3.8253 62.9092C5.38188 61.9518 6.98052 60.9943 8.53709 60.0014C8.6633 59.8596 9.96747 60.1787 10.1357 60.5688C9.79919 61.4908 9.42056 62.3773 9.084 63.2993C9.67298 62.4482 10.2199 61.5617 10.8089 60.7106C11.0192 60.5333 11.3137 60.4269 11.6923 60.3915C13.291 60.3915 14.9317 60.3915 16.5303 60.3915C17.8345 60.3915 19.2228 60.3915 20.569 60.4269C17.0352 60.2496 13.7117 60.1432 10.7247 60.1078C10.0516 60.0369 9.04193 59.5404 8.74745 59.2213C7.5695 47.9092 6.39154 36.4553 5.80257 25.1078C5.92878 24.9659 6.05499 24.895 6.22327 24.8241C7.6957 24.3631 25.0705 22.3064 36.8079 20.8525C43.3287 20.0369 44.6328 19.4695 51.1957 20.7106C70.9264 24.3986 112.281 38.0156 127.804 44.2213C130.623 45.356 130.834 45.817 133.021 47.6255C137.817 51.6326 142.655 55.4624 147.619 59.2213C149.176 61.6326 150.648 64.1858 150.27 64.3986C150.059 64.5404 148.587 64.7177 146.736 64.6823C137.985 64.5049 129.277 63.583 120.569 63.1929C129.698 64.1858 138.995 64.6822 148.713 65.6752C149.933 65.7815 150.564 65.8525 150.985 66.1716C151.279 66.3844 151.616 68.0156 151.742 69.6468C152.037 67.4128 152.037 66.0652 152.541 65.9234C152.752 65.8525 153.846 65.8525 154.981 65.817C162.302 65.7106 169.622 65.3206 176.942 64.7177C189.731 62.8738 202.226 60.7106 213.795 57.7319C218.338 55.6397 222.966 53.6184 227.762 51.8099C232.053 50.2142 236.47 53.6184 240.593 55.6397C238.49 54.2213 236.554 53.0156 234.409 51.7745C231.969 50.356 230.581 50.3205 233.105 48.4411C239.037 44.0794 243.917 40.8525 250.353 37.0227C250.816 35.7815 253.887 30.6752 254.35 30.8525C254.476 30.8879 254.602 31.0652 254.771 31.4198C254.013 40.9588 253.887 51.4553 253.214 61.1007C252.12 61.5617 250.858 62.0227 249.933 62.3418C241.014 62.6255 231.927 62.9092 222.714 63.1929L222.756 63.2638ZM176.942 64.7532C169.411 64.7532 161.797 65.6042 154.308 64.8241C153.13 64.6823 152.541 64.4695 152.079 64.0794C150.859 62.9801 149.512 60.4979 148.629 59.1503C142.319 54.7532 136.934 50.3915 132.39 46.1362C131.885 44.7177 131.843 44.3277 133.147 42.8028C142.992 31.4553 160.703 20.7815 175.932 14.7177C180.98 12.6964 186.618 10.9943 191.498 9.54042C192.928 8.58297 193.433 8.15744 194.19 7.90922C195.789 7.34184 197.388 7.5546 199.07 7.62552C216.151 8.29928 233.525 8.93758 249.302 9.71772C249.806 10.0014 250.311 10.3915 250.774 10.8525C251.068 12.9092 251.195 14.9659 251.657 16.9518C252.625 20.2142 253.887 24.6113 254.686 27.2C255.023 28.3702 255.023 28.7603 253.971 30.4979C252.709 32.5901 251.363 34.6113 249.722 36.2425C243.159 41.0298 236.344 45.4624 229.403 49.7532C224.48 52.5901 219.096 54.8241 213.332 56.6681C201.721 60.2142 189.436 62.6255 176.984 64.7532H176.942ZM129.824 44.1858C104.919 33.973 78.3306 26.2425 50.144 20.0369C48.5874 19.6823 47.9143 19.3276 47.8722 19.1503C47.8722 18.973 48.5453 18.4057 49.8074 17.6255C52.1212 16.1716 54.4351 14.7886 56.833 13.4766C58.1793 10.9234 60.7455 6.77446 63.0173 5.24964C75.3857 5.17872 90.3625 5.28509 102.605 6.9163C115.857 5.88793 127.005 5.85248 139.542 7.34184C147.535 6.88085 154.14 6.84538 161.544 5.85247C170.884 6.38439 180.854 6.84538 191.035 7.27092C192.213 7.30638 193.559 7.34184 191.877 8.33474C189.479 9.71772 182.369 11.8099 175.764 14.434C169.201 17.0582 163.311 20.1078 161.292 20.9234C160.114 21.4198 160.198 21.0298 160.156 20.1787C160.072 16.8454 160.072 12.9092 160.451 9.07942C159.904 10.9234 159.399 16.5262 159.567 20.4624C159.609 21.3844 159.819 21.6681 158.095 22.661C147.788 28.4766 138.953 34.9305 132.222 42.661C131.086 43.973 130.96 44.2213 129.74 44.1503L129.824 44.1858ZM5.97085 23.6184C6.98052 19.4695 8.70537 15.6752 9.88332 10.6042C10.1357 10.4269 11.9027 8.97304 12.1551 8.79574C27.2581 8.37021 46.0632 6.63262 60.4931 5.42694C61.2083 5.81701 60.9138 6.38439 60.2407 7.30637C58.8103 9.22126 57.3799 11.1716 55.9075 13.0865C52.8364 15.356 49.6391 17.2355 46.3577 18.973C45.2639 19.1858 42.5714 19.1503 41.2673 19.3276C34.7465 20.2496 7.82191 24.5404 6.43361 23.973C6.26533 23.9021 6.09706 23.7957 5.92878 23.583L5.97085 23.6184Z" fill="url(#paint24_radial_2187_8053)"/>
<g style="mix-blend-mode:screen" opacity="0.5">
<path fill-rule="evenodd" clip-rule="evenodd" d="M44.4668 41.1721C43.7095 41.1012 42.8681 41.3494 42.3633 41.8458C41.3536 42.8742 40.6384 44.1508 40.3019 45.4274C39.9653 46.7749 42.6998 48.087 44.0461 48.1224C45.0978 48.1224 46.3599 47.8033 46.991 47.0941C48.0006 45.9593 46.5282 41.3494 44.4247 41.1721H44.4668Z" fill="#373FA5"/>
</g>
<g style="mix-blend-mode:screen" opacity="0.5">
<path fill-rule="evenodd" clip-rule="evenodd" d="M29.4061 28.5819C27.2184 29.0429 24.9887 29.8231 23.3901 31.1351C21.4549 32.7309 19.0149 37.6954 20.4452 39.894C21.2445 41.0997 22.8853 42.1635 24.526 42.2344C27.0502 42.3762 29.7847 41.7379 31.804 40.4614C33.7392 39.2202 34.7489 37.4117 36.2634 35.816C37.231 34.7876 38.3669 33.7592 39.1662 32.589C40.5124 30.6387 38.3248 28.6174 36.642 28.3692C33.8654 27.9791 32.1406 28.0146 29.4061 28.6174V28.5819Z" fill="#373FA5"/>
</g>
<g style="mix-blend-mode:screen" opacity="0.5">
<path fill-rule="evenodd" clip-rule="evenodd" d="M235.594 27.4477C232.775 27.9087 229.746 31.9513 229.073 34.3626C228.358 36.8449 229.662 38.1924 231.093 37.696C234.206 36.6676 243.04 33.6534 243.629 30.4619C243.924 28.8307 242.956 27.3768 240.937 27.0931C239.17 26.8449 237.361 27.164 235.594 27.4477Z" fill="#373FA5"/>
</g>
<path fill-rule="evenodd" clip-rule="evenodd" d="M235.129 26.9868C232.31 27.4478 229.281 31.4903 228.608 33.9017C227.893 36.384 229.197 37.7315 230.628 37.235C233.741 36.2066 242.575 33.1925 243.164 30.001C243.459 28.3698 242.491 26.9159 240.472 26.6322C238.705 26.384 236.896 26.7031 235.129 26.9868Z" fill="url(#paint25_radial_2187_8053)"/>
<path fill-rule="evenodd" clip-rule="evenodd" d="M44.0019 40.7463C43.2447 40.6754 42.4033 40.9236 41.8984 41.42C40.8888 42.4484 40.1736 43.725 39.837 45.0016C39.5005 46.3491 42.235 47.6612 43.5812 47.6966C44.633 47.6966 45.8951 47.3775 46.5261 46.6683C47.5358 45.5335 46.0633 40.9236 43.9599 40.7463H44.0019Z" fill="url(#paint26_radial_2187_8053)"/>
<path fill-rule="evenodd" clip-rule="evenodd" d="M28.9408 28.1551C26.7531 28.6161 24.5235 29.3962 22.9248 30.7083C21.0317 32.304 18.5496 37.2686 19.9799 39.4671C20.7793 40.6728 22.42 41.7366 24.0607 41.8076C26.5849 41.9494 29.3194 41.3111 31.3387 40.0345C33.2739 38.7934 34.2836 36.9849 35.7981 35.3891C36.7657 34.3608 37.9016 33.3324 38.7009 32.1622C40.0471 30.2118 37.8595 28.1905 36.1767 27.9423C33.4001 27.5522 31.6753 27.5877 28.9408 28.1551Z" fill="url(#paint27_radial_2187_8053)"/>
<g filter="url(#filter0_dddd_2187_8053)">
<path d="M100.438 30.024C100.342 30.04 100.254 30.056 100.174 30.072C100.126 29.528 100.046 29.056 99.9341 28.656C99.8221 28.176 99.6301 27.904 99.3581 27.84C99.1341 27.776 98.9101 27.792 98.6861 27.888C98.4781 27.984 98.3021 28.128 98.1581 28.32C98.0141 28.496 97.9181 28.688 97.8701 28.896C97.8221 29.152 97.8381 29.392 97.9181 29.616C97.9981 29.824 98.1341 30.008 98.3261 30.168C98.5181 30.328 98.6941 30.464 98.8541 30.576C99.0301 30.672 99.2461 30.776 99.5021 30.888C101.054 31.576 102.126 32.104 102.718 32.472C104.014 33.272 104.894 34.096 105.358 34.944C105.966 36.064 106.142 37.184 105.886 38.304C105.742 38.864 105.518 39.376 105.214 39.84C104.926 40.304 104.558 40.704 104.11 41.04C103.678 41.376 103.19 41.624 102.646 41.784C102.406 41.864 102.15 41.92 101.878 41.952C101.606 41.968 101.35 41.968 101.11 41.952C100.886 41.936 100.63 41.936 100.342 41.952C99.5741 41.984 98.8221 41.848 98.0861 41.544C97.3501 41.224 96.7181 40.768 96.1901 40.176C95.2941 39.184 94.7741 37.848 94.6301 36.168C96.3421 36.36 98.0541 36.336 99.7661 36.096C99.7661 36.704 99.8301 37.296 99.9581 37.872C100.038 38.224 100.142 38.488 100.27 38.664C100.478 38.936 100.75 39.024 101.086 38.928C101.438 38.832 101.646 38.624 101.71 38.304C101.79 37.968 101.734 37.592 101.542 37.176C101.11 36.28 100.158 35.448 98.6861 34.68C98.5741 34.632 98.3661 34.536 98.0621 34.392C97.7741 34.232 97.5581 34.112 97.4141 34.032C97.2701 33.952 97.0781 33.848 96.8381 33.72C96.6141 33.576 96.4061 33.44 96.2141 33.312C96.0381 33.168 95.8701 33.016 95.7101 32.856C95.4221 32.568 95.1661 32.256 94.9421 31.92C94.5261 31.216 94.3341 30.488 94.3661 29.736C94.4141 28.984 94.6461 28.256 95.0621 27.552C95.6381 26.624 96.4221 25.992 97.4141 25.656C98.4221 25.32 99.5101 25.232 100.678 25.392C101.75 25.552 102.638 26.04 103.342 26.856C104.078 27.688 104.454 28.68 104.47 29.832C103.11 29.768 101.766 29.832 100.438 30.024ZM118.316 33.384C118.364 35.048 118.324 36.288 118.196 37.104C117.988 38.496 117.516 39.616 116.78 40.464C116.236 41.088 115.604 41.504 114.884 41.712C114.164 41.92 113.3 42.024 112.292 42.024C110.708 42.04 109.428 41.528 108.452 40.488C107.492 39.432 106.932 38.096 106.772 36.48C106.548 34.048 106.612 31.688 106.964 29.4C107.028 28.968 107.124 28.32 107.252 27.456C107.396 26.576 107.5 25.92 107.564 25.488C108.124 25.632 108.932 25.76 109.988 25.872C111.044 25.968 111.724 26.048 112.028 26.112C112.012 26.096 111.988 26.176 111.956 26.352C111.924 26.512 111.884 26.728 111.836 27C111.804 27.256 111.764 27.552 111.716 27.888C111.668 28.208 111.62 28.544 111.572 28.896C111.524 29.232 111.484 29.544 111.452 29.832C111.42 30.104 111.388 30.352 111.356 30.576C111.324 30.8 111.308 30.936 111.308 30.984C111.292 31.032 111.276 31.12 111.26 31.248C110.972 33.248 110.884 34.744 110.996 35.736C111.06 36.472 111.252 37.008 111.572 37.344C111.748 37.536 111.948 37.656 112.172 37.704C112.412 37.752 112.636 37.72 112.844 37.608C113.148 37.432 113.348 37.064 113.444 36.504C113.604 35.656 113.7 34.784 113.732 33.888C113.78 32.992 113.764 32.032 113.684 31.008C113.604 29.984 113.524 29.136 113.444 28.464C113.364 27.776 113.236 26.84 113.06 25.656C114.708 25.432 116.22 25.312 117.596 25.296L117.62 25.32C117.972 27.176 118.204 29.864 118.316 33.384ZM131.594 35.736C131.802 36.84 131.73 37.896 131.378 38.904C131.026 39.896 130.386 40.64 129.458 41.136C128.69 41.552 127.85 41.824 126.938 41.952C126.026 42.08 124.962 42.144 123.746 42.144C123.314 42.144 122.538 42.104 121.418 42.024C120.314 41.944 119.762 41.848 119.762 41.736C119.986 34.952 119.906 29.584 119.522 25.632C120.61 25.552 121.458 25.504 122.066 25.488C122.674 25.456 123.442 25.464 124.37 25.512C125.298 25.544 126.138 25.64 126.89 25.8C127.674 25.976 128.346 26.328 128.906 26.856C129.482 27.368 129.826 27.976 129.938 28.68C130.05 29.384 129.858 30.128 129.362 30.912C128.994 31.456 128.442 31.976 127.706 32.472C128.538 32.712 129.226 32.976 129.77 33.264C130.314 33.536 130.746 33.92 131.066 34.416C131.322 34.8 131.498 35.24 131.594 35.736ZM123.65 31.752C123.65 31.752 123.866 31.688 124.298 31.56C124.73 31.432 124.978 31.352 125.042 31.32C125.362 31.208 125.61 31.072 125.786 30.912C126.026 30.688 126.146 30.432 126.146 30.144C126.146 29.984 126.106 29.824 126.026 29.664C125.866 29.36 125.602 29.12 125.234 28.944C124.53 28.624 123.938 28.464 123.458 28.464C123.474 28.528 123.482 28.576 123.482 28.608C123.562 29.648 123.618 30.696 123.65 31.752ZM127.49 37.608C127.618 37.288 127.562 36.936 127.322 36.552C127.194 36.36 126.938 36.144 126.554 35.904C126.138 35.664 125.73 35.488 125.33 35.376C125.266 35.36 125.01 35.312 124.562 35.232C124.13 35.152 123.914 35.12 123.914 35.136C123.914 36.464 123.858 37.784 123.746 39.096C124.098 39.08 124.506 39.032 124.97 38.952C125.434 38.856 125.93 38.696 126.458 38.472C127.002 38.232 127.346 37.944 127.49 37.608ZM148.059 25.656C148.075 26.344 148.051 27.408 147.987 28.848C147.939 30.272 147.883 31.632 147.819 32.928C147.755 34.224 147.739 35.704 147.771 37.368C147.803 39.016 147.899 40.488 148.059 41.784C147.451 41.8 146.043 41.92 143.835 42.144C143.819 41.68 143.803 41.248 143.787 40.848C143.787 40.448 143.779 40.088 143.763 39.768C143.763 39.448 143.763 39.088 143.763 38.688C143.779 38.272 143.787 37.896 143.787 37.56C143.787 37.208 143.787 36.736 143.787 36.144C143.803 35.552 143.819 34.976 143.835 34.416C142.987 36.928 142.467 38.648 142.275 39.576C141.891 39.592 141.283 39.632 140.451 39.696C139.635 39.76 138.979 39.8 138.483 39.816C138.099 38.2 137.571 36.568 136.899 34.92C136.947 35.944 137.003 36.888 137.067 37.752C137.131 38.616 137.187 39.4 137.235 40.104C137.299 40.792 137.339 41.4 137.355 41.928L132.747 41.784C132.763 41.112 132.787 40.216 132.819 39.096C132.851 37.96 132.851 35.968 132.819 33.12C132.787 30.272 132.683 27.808 132.507 25.728C132.939 25.712 133.515 25.688 134.235 25.656C134.971 25.608 135.595 25.56 136.107 25.512L136.875 25.44C137.291 26.672 137.843 28.152 138.531 29.88C139.235 31.592 139.819 32.92 140.283 33.864C141.595 30.776 142.659 27.912 143.475 25.272C144.243 25.368 145.771 25.496 148.059 25.656ZM149.406 27.24C149.726 26.472 150.39 25.944 151.398 25.656C152.39 25.384 153.174 25.472 153.75 25.92C154.278 26.352 154.406 27.016 154.134 27.912C153.99 28.408 153.67 28.808 153.174 29.112C152.79 29.352 152.302 29.504 151.71 29.568C151.102 29.648 150.598 29.592 150.198 29.4C149.638 29.144 149.318 28.744 149.238 28.2C149.206 27.912 149.262 27.592 149.406 27.24ZM149.646 30.672C150.99 30.672 152.39 30.576 153.846 30.384C153.766 31.344 153.71 32.424 153.678 33.624C153.646 34.808 153.63 35.864 153.63 36.792C153.646 37.72 153.654 38.64 153.654 39.552C153.67 40.448 153.678 41.088 153.678 41.472C153.694 41.856 153.686 42.096 153.654 42.192C153.414 42.144 152.966 42.096 152.31 42.048C151.67 42 151.102 41.968 150.606 41.952C150.11 41.936 149.79 41.944 149.646 41.976C149.71 40.6 149.734 39.08 149.718 37.416C149.718 35.736 149.702 34.192 149.67 32.784C149.654 31.376 149.646 30.672 149.646 30.672ZM166.783 29.856C166.223 29.728 164.967 29.672 163.015 29.688C163.079 34.056 163.295 38.088 163.663 41.784C161.471 41.928 159.775 42.04 158.575 42.12C158.607 41.688 158.647 40.96 158.695 39.936C158.759 38.896 158.807 38.16 158.839 37.728C158.871 37.296 158.903 36.664 158.935 35.832C158.983 34.984 159.015 34.296 159.031 33.768C159.047 33.224 159.063 32.592 159.079 31.872C159.095 31.152 159.095 30.456 159.079 29.784C156.839 29.896 155.455 30.016 154.927 30.144C154.927 28.544 154.839 27.008 154.663 25.536C158.583 25.888 162.703 25.864 167.023 25.464C166.783 26.696 166.703 28.16 166.783 29.856Z" fill="#B6F6FF"/>
<path d="M100.438 30.024C100.342 30.04 100.254 30.056 100.174 30.072C100.126 29.528 100.046 29.056 99.9341 28.656C99.8221 28.176 99.6301 27.904 99.3581 27.84C99.1341 27.776 98.9101 27.792 98.6861 27.888C98.4781 27.984 98.3021 28.128 98.1581 28.32C98.0141 28.496 97.9181 28.688 97.8701 28.896C97.8221 29.152 97.8381 29.392 97.9181 29.616C97.9981 29.824 98.1341 30.008 98.3261 30.168C98.5181 30.328 98.6941 30.464 98.8541 30.576C99.0301 30.672 99.2461 30.776 99.5021 30.888C101.054 31.576 102.126 32.104 102.718 32.472C104.014 33.272 104.894 34.096 105.358 34.944C105.966 36.064 106.142 37.184 105.886 38.304C105.742 38.864 105.518 39.376 105.214 39.84C104.926 40.304 104.558 40.704 104.11 41.04C103.678 41.376 103.19 41.624 102.646 41.784C102.406 41.864 102.15 41.92 101.878 41.952C101.606 41.968 101.35 41.968 101.11 41.952C100.886 41.936 100.63 41.936 100.342 41.952C99.5741 41.984 98.8221 41.848 98.0861 41.544C97.3501 41.224 96.7181 40.768 96.1901 40.176C95.2941 39.184 94.7741 37.848 94.6301 36.168C96.3421 36.36 98.0541 36.336 99.7661 36.096C99.7661 36.704 99.8301 37.296 99.9581 37.872C100.038 38.224 100.142 38.488 100.27 38.664C100.478 38.936 100.75 39.024 101.086 38.928C101.438 38.832 101.646 38.624 101.71 38.304C101.79 37.968 101.734 37.592 101.542 37.176C101.11 36.28 100.158 35.448 98.6861 34.68C98.5741 34.632 98.3661 34.536 98.0621 34.392C97.7741 34.232 97.5581 34.112 97.4141 34.032C97.2701 33.952 97.0781 33.848 96.8381 33.72C96.6141 33.576 96.4061 33.44 96.2141 33.312C96.0381 33.168 95.8701 33.016 95.7101 32.856C95.4221 32.568 95.1661 32.256 94.9421 31.92C94.5261 31.216 94.3341 30.488 94.3661 29.736C94.4141 28.984 94.6461 28.256 95.0621 27.552C95.6381 26.624 96.4221 25.992 97.4141 25.656C98.4221 25.32 99.5101 25.232 100.678 25.392C101.75 25.552 102.638 26.04 103.342 26.856C104.078 27.688 104.454 28.68 104.47 29.832C103.11 29.768 101.766 29.832 100.438 30.024ZM118.316 33.384C118.364 35.048 118.324 36.288 118.196 37.104C117.988 38.496 117.516 39.616 116.78 40.464C116.236 41.088 115.604 41.504 114.884 41.712C114.164 41.92 113.3 42.024 112.292 42.024C110.708 42.04 109.428 41.528 108.452 40.488C107.492 39.432 106.932 38.096 106.772 36.48C106.548 34.048 106.612 31.688 106.964 29.4C107.028 28.968 107.124 28.32 107.252 27.456C107.396 26.576 107.5 25.92 107.564 25.488C108.124 25.632 108.932 25.76 109.988 25.872C111.044 25.968 111.724 26.048 112.028 26.112C112.012 26.096 111.988 26.176 111.956 26.352C111.924 26.512 111.884 26.728 111.836 27C111.804 27.256 111.764 27.552 111.716 27.888C111.668 28.208 111.62 28.544 111.572 28.896C111.524 29.232 111.484 29.544 111.452 29.832C111.42 30.104 111.388 30.352 111.356 30.576C111.324 30.8 111.308 30.936 111.308 30.984C111.292 31.032 111.276 31.12 111.26 31.248C110.972 33.248 110.884 34.744 110.996 35.736C111.06 36.472 111.252 37.008 111.572 37.344C111.748 37.536 111.948 37.656 112.172 37.704C112.412 37.752 112.636 37.72 112.844 37.608C113.148 37.432 113.348 37.064 113.444 36.504C113.604 35.656 113.7 34.784 113.732 33.888C113.78 32.992 113.764 32.032 113.684 31.008C113.604 29.984 113.524 29.136 113.444 28.464C113.364 27.776 113.236 26.84 113.06 25.656C114.708 25.432 116.22 25.312 117.596 25.296L117.62 25.32C117.972 27.176 118.204 29.864 118.316 33.384ZM131.594 35.736C131.802 36.84 131.73 37.896 131.378 38.904C131.026 39.896 130.386 40.64 129.458 41.136C128.69 41.552 127.85 41.824 126.938 41.952C126.026 42.08 124.962 42.144 123.746 42.144C123.314 42.144 122.538 42.104 121.418 42.024C120.314 41.944 119.762 41.848 119.762 41.736C119.986 34.952 119.906 29.584 119.522 25.632C120.61 25.552 121.458 25.504 122.066 25.488C122.674 25.456 123.442 25.464 124.37 25.512C125.298 25.544 126.138 25.64 126.89 25.8C127.674 25.976 128.346 26.328 128.906 26.856C129.482 27.368 129.826 27.976 129.938 28.68C130.05 29.384 129.858 30.128 129.362 30.912C128.994 31.456 128.442 31.976 127.706 32.472C128.538 32.712 129.226 32.976 129.77 33.264C130.314 33.536 130.746 33.92 131.066 34.416C131.322 34.8 131.498 35.24 131.594 35.736ZM123.65 31.752C123.65 31.752 123.866 31.688 124.298 31.56C124.73 31.432 124.978 31.352 125.042 31.32C125.362 31.208 125.61 31.072 125.786 30.912C126.026 30.688 126.146 30.432 126.146 30.144C126.146 29.984 126.106 29.824 126.026 29.664C125.866 29.36 125.602 29.12 125.234 28.944C124.53 28.624 123.938 28.464 123.458 28.464C123.474 28.528 123.482 28.576 123.482 28.608C123.562 29.648 123.618 30.696 123.65 31.752ZM127.49 37.608C127.618 37.288 127.562 36.936 127.322 36.552C127.194 36.36 126.938 36.144 126.554 35.904C126.138 35.664 125.73 35.488 125.33 35.376C125.266 35.36 125.01 35.312 124.562 35.232C124.13 35.152 123.914 35.12 123.914 35.136C123.914 36.464 123.858 37.784 123.746 39.096C124.098 39.08 124.506 39.032 124.97 38.952C125.434 38.856 125.93 38.696 126.458 38.472C127.002 38.232 127.346 37.944 127.49 37.608ZM148.059 25.656C148.075 26.344 148.051 27.408 147.987 28.848C147.939 30.272 147.883 31.632 147.819 32.928C147.755 34.224 147.739 35.704 147.771 37.368C147.803 39.016 147.899 40.488 148.059 41.784C147.451 41.8 146.043 41.92 143.835 42.144C143.819 41.68 143.803 41.248 143.787 40.848C143.787 40.448 143.779 40.088 143.763 39.768C143.763 39.448 143.763 39.088 143.763 38.688C143.779 38.272 143.787 37.896 143.787 37.56C143.787 37.208 143.787 36.736 143.787 36.144C143.803 35.552 143.819 34.976 143.835 34.416C142.987 36.928 142.467 38.648 142.275 39.576C141.891 39.592 141.283 39.632 140.451 39.696C139.635 39.76 138.979 39.8 138.483 39.816C138.099 38.2 137.571 36.568 136.899 34.92C136.947 35.944 137.003 36.888 137.067 37.752C137.131 38.616 137.187 39.4 137.235 40.104C137.299 40.792 137.339 41.4 137.355 41.928L132.747 41.784C132.763 41.112 132.787 40.216 132.819 39.096C132.851 37.96 132.851 35.968 132.819 33.12C132.787 30.272 132.683 27.808 132.507 25.728C132.939 25.712 133.515 25.688 134.235 25.656C134.971 25.608 135.595 25.56 136.107 25.512L136.875 25.44C137.291 26.672 137.843 28.152 138.531 29.88C139.235 31.592 139.819 32.92 140.283 33.864C141.595 30.776 142.659 27.912 143.475 25.272C144.243 25.368 145.771 25.496 148.059 25.656ZM149.406 27.24C149.726 26.472 150.39 25.944 151.398 25.656C152.39 25.384 153.174 25.472 153.75 25.92C154.278 26.352 154.406 27.016 154.134 27.912C153.99 28.408 153.67 28.808 153.174 29.112C152.79 29.352 152.302 29.504 151.71 29.568C151.102 29.648 150.598 29.592 150.198 29.4C149.638 29.144 149.318 28.744 149.238 28.2C149.206 27.912 149.262 27.592 149.406 27.24ZM149.646 30.672C150.99 30.672 152.39 30.576 153.846 30.384C153.766 31.344 153.71 32.424 153.678 33.624C153.646 34.808 153.63 35.864 153.63 36.792C153.646 37.72 153.654 38.64 153.654 39.552C153.67 40.448 153.678 41.088 153.678 41.472C153.694 41.856 153.686 42.096 153.654 42.192C153.414 42.144 152.966 42.096 152.31 42.048C151.67 42 151.102 41.968 150.606 41.952C150.11 41.936 149.79 41.944 149.646 41.976C149.71 40.6 149.734 39.08 149.718 37.416C149.718 35.736 149.702 34.192 149.67 32.784C149.654 31.376 149.646 30.672 149.646 30.672ZM166.783 29.856C166.223 29.728 164.967 29.672 163.015 29.688C163.079 34.056 163.295 38.088 163.663 41.784C161.471 41.928 159.775 42.04 158.575 42.12C158.607 41.688 158.647 40.96 158.695 39.936C158.759 38.896 158.807 38.16 158.839 37.728C158.871 37.296 158.903 36.664 158.935 35.832C158.983 34.984 159.015 34.296 159.031 33.768C159.047 33.224 159.063 32.592 159.079 31.872C159.095 31.152 159.095 30.456 159.079 29.784C156.839 29.896 155.455 30.016 154.927 30.144C154.927 28.544 154.839 27.008 154.663 25.536C158.583 25.888 162.703 25.864 167.023 25.464C166.783 26.696 166.703 28.16 166.783 29.856Z" fill="url(#paint28_linear_2187_8053)"/>
</g>
<defs>
<filter id="filter0_dddd_2187_8053" x="90.9815" y="20.15" width="82.7118" height="27.0438" filterUnits="userSpaceOnUse" color-interpolation-filters="sRGB">
<feFlood flood-opacity="0" result="BackgroundImageFix"/>
<feColorMatrix in="SourceAlpha" type="matrix" values="0 0 0 0 0 0 0 0 0 0 0 0 0 0 0 0 0 0 127 0" result="hardAlpha"/>
<feOffset dy="1.66746"/>
<feGaussianBlur stdDeviation="1.66746"/>
<feColorMatrix type="matrix" values="0 0 0 0 0 0 0 0 0 0 0 0 0 0 0 0 0 0 0.2 0"/>
<feBlend mode="overlay" in2="BackgroundImageFix" result="effect1_dropShadow_2187_8053"/>
<feColorMatrix in="SourceAlpha" type="matrix" values="0 0 0 0 0 0 0 0 0 0 0 0 0 0 0 0 0 0 127 0" result="hardAlpha"/>
<feOffset dy="1.66746"/>
<feGaussianBlur stdDeviation="0.833732"/>
<feColorMatrix type="matrix" values="0 0 0 0 0 0 0 0 0 0 0 0 0 0 0 0 0 0 0.22 0"/>
<feBlend mode="overlay" in2="effect1_dropShadow_2187_8053" result="effect2_dropShadow_2187_8053"/>
<feColorMatrix in="SourceAlpha" type="matrix" values="0 0 0 0 0 0 0 0 0 0 0 0 0 0 0 0 0 0 127 0" result="hardAlpha"/>
<feOffset dy="1.66746"/>
<feGaussianBlur stdDeviation="1.66746"/>
<feColorMatrix type="matrix" values="0 0 0 0 0 0 0 0 0 0 0 0 0 0 0 0 0 0 0.24 0"/>
<feBlend mode="overlay" in2="effect2_dropShadow_2187_8053" result="effect3_dropShadow_2187_8053"/>
<feColorMatrix in="SourceAlpha" type="matrix" values="0 0 0 0 0 0 0 0 0 0 0 0 0 0 0 0 0 0 127 0" result="hardAlpha"/>
<feOffset dx="1.66746"/>
<feGaussianBlur stdDeviation="2.5012"/>
<feColorMatrix type="matrix" values="0 0 0 0 0 0 0 0 0 0 0 0 0 0 0 0 0 0 0.35 0"/>
<feBlend mode="normal" in2="effect3_dropShadow_2187_8053" result="effect4_dropShadow_2187_8053"/>
<feBlend mode="normal" in="SourceGraphic" in2="effect4_dropShadow_2187_8053" result="shape"/>
</filter>
<radialGradient id="paint0_radial_2187_8053" cx="0" cy="0" r="1" gradientUnits="userSpaceOnUse" gradientTransform="translate(221.416 73.652) scale(20.2355 17.0567)">
<stop stop-color="#7C8FB2"/>
<stop offset="1" stop-color="#515682"/>
</radialGradient>
<radialGradient id="paint1_radial_2187_8053" cx="0" cy="0" r="1" gradientUnits="userSpaceOnUse" gradientTransform="translate(122.213 75.9583) scale(34.2867 28.9007)">
<stop stop-color="#7C8FB2"/>
<stop offset="1" stop-color="#515682"/>
</radialGradient>
<radialGradient id="paint2_radial_2187_8053" cx="0" cy="0" r="1" gradientUnits="userSpaceOnUse" gradientTransform="translate(141.899 77.5541) scale(32.4357 27.3404)">
<stop stop-color="#7C8FB2"/>
<stop offset="1" stop-color="#515682"/>
</radialGradient>
<radialGradient id="paint3_radial_2187_8053" cx="0" cy="0" r="1" gradientUnits="userSpaceOnUse" gradientTransform="translate(45.3511 0.921675) scale(298.232 251.383)">
<stop stop-color="#676C94"/>
<stop offset="1" stop-color="#17233A"/>
</radialGradient>
<radialGradient id="paint4_radial_2187_8053" cx="0" cy="0" r="1" gradientUnits="userSpaceOnUse" gradientTransform="translate(0.378627 28.5447) scale(60.6223 51.0993)">
<stop stop-color="#5A6084"/>
<stop offset="1" stop-color="#323B63"/>
</radialGradient>
<radialGradient id="paint5_radial_2187_8053" cx="0" cy="0" r="1" gradientUnits="userSpaceOnUse" gradientTransform="translate(17.1234 10.2116) scale(22.4231 18.9007)">
<stop stop-color="#8899C2"/>
<stop offset="1" stop-color="#727696"/>
</radialGradient>
<radialGradient id="paint6_radial_2187_8053" cx="0" cy="0" r="1" gradientUnits="userSpaceOnUse" gradientTransform="translate(63.0604 -43.511) scale(90.9125 76.6312)">
<stop stop-color="#8899C2"/>
<stop offset="1" stop-color="#727696"/>
</radialGradient>
<radialGradient id="paint7_radial_2187_8053" cx="0" cy="0" r="1" gradientUnits="userSpaceOnUse" gradientTransform="translate(88.1786 -57.2698) scale(89.4821 75.4255)">
<stop stop-color="#8899C2"/>
<stop offset="1" stop-color="#727696"/>
</radialGradient>
<radialGradient id="paint8_radial_2187_8053" cx="0" cy="0" r="1" gradientUnits="userSpaceOnUse" gradientTransform="translate(140.597 -31.7728) scale(93.4787 78.7943)">
<stop stop-color="#8899C2"/>
<stop offset="1" stop-color="#727696"/>
</radialGradient>
<radialGradient id="paint9_radial_2187_8053" cx="0" cy="0" r="1" gradientUnits="userSpaceOnUse" gradientTransform="translate(178.67 -57.801) scale(114.387 96.4185)">
<stop stop-color="#8899C2"/>
<stop offset="1" stop-color="#727696"/>
</radialGradient>
<radialGradient id="paint10_radial_2187_8053" cx="0" cy="0" r="1" gradientUnits="userSpaceOnUse" gradientTransform="translate(239.499 -19.4691) scale(36.7268 30.9575)">
<stop stop-color="#8899C2"/>
<stop offset="1" stop-color="#727696"/>
</radialGradient>
<radialGradient id="paint11_radial_2187_8053" cx="0" cy="0" r="1" gradientUnits="userSpaceOnUse" gradientTransform="translate(252.545 10.1771) scale(85.4856 72.0567)">
<stop stop-color="#5A6084"/>
<stop offset="1" stop-color="#323B63"/>
</radialGradient>
<radialGradient id="paint12_radial_2187_8053" cx="0" cy="0" r="1" gradientUnits="userSpaceOnUse" gradientTransform="translate(227.933 19.8574) scale(79.9744 67.4113)">
<stop stop-color="#5A6084"/>
<stop offset="1" stop-color="#323B63"/>
</radialGradient>
<radialGradient id="paint13_radial_2187_8053" cx="0" cy="0" r="1" gradientUnits="userSpaceOnUse" gradientTransform="translate(249.764 46.3137) scale(46.7393 39.3971)">
<stop stop-color="#5A6084"/>
<stop offset="1" stop-color="#323B63"/>
</radialGradient>
<radialGradient id="paint14_radial_2187_8053" cx="0" cy="0" r="1" gradientUnits="userSpaceOnUse" gradientTransform="translate(182.119 6.09833) scale(118.889 100.213)">
<stop stop-color="#4E5470"/>
<stop offset="1" stop-color="#252E4F"/>
</radialGradient>
<radialGradient id="paint15_radial_2187_8053" cx="0" cy="0" r="1" gradientUnits="userSpaceOnUse" gradientTransform="translate(97.9352 7.94264) scale(99.6209 83.9716)">
<stop stop-color="#4E5470"/>
<stop offset="1" stop-color="#252E4F"/>
</radialGradient>
<radialGradient id="paint16_radial_2187_8053" cx="0" cy="0" r="1" gradientUnits="userSpaceOnUse" gradientTransform="translate(56.1644 19.1117) scale(97.0126 81.773)">
<stop stop-color="#4E5470"/>
<stop offset="1" stop-color="#252E4F"/>
</radialGradient>
<radialGradient id="paint17_radial_2187_8053" cx="0" cy="0" r="1" gradientUnits="userSpaceOnUse" gradientTransform="translate(16.9578 49.3955) scale(47.6649 40.1773)">
<stop stop-color="#5A6084"/>
<stop offset="1" stop-color="#323B63"/>
</radialGradient>
<radialGradient id="paint18_radial_2187_8053" cx="0" cy="0" r="1" gradientUnits="userSpaceOnUse" gradientTransform="translate(-0.50484 20.8863) scale(84.6862 71.383)">
<stop stop-color="#5A6084"/>
<stop offset="1" stop-color="#323B63"/>
</radialGradient>
<radialGradient id="paint19_radial_2187_8053" cx="0" cy="0" r="1" gradientUnits="userSpaceOnUse" gradientTransform="translate(47.7057 18.7233) scale(102.103 86.0638)">
<stop stop-color="#4E5B7D"/>
<stop offset="1" stop-color="#313556"/>
</radialGradient>
<radialGradient id="paint20_radial_2187_8053" cx="0" cy="0" r="1" gradientUnits="userSpaceOnUse" gradientTransform="translate(107.698 46.2424) scale(193.184 162.837)">
<stop stop-color="#4E5B7D"/>
<stop offset="1" stop-color="#313556"/>
</radialGradient>
<radialGradient id="paint21_radial_2187_8053" cx="0" cy="0" r="1" gradientUnits="userSpaceOnUse" gradientTransform="translate(81.7413 -21.0275) scale(232.519 195.993)">
<stop stop-color="#4E5B7D"/>
<stop offset="1" stop-color="#313556"/>
</radialGradient>
<radialGradient id="paint22_radial_2187_8053" cx="0" cy="0" r="1" gradientUnits="userSpaceOnUse" gradientTransform="translate(121.414 29.3954) scale(244.677 206.241)">
<stop stop-color="#4E5B7D"/>
<stop offset="1" stop-color="#313556"/>
</radialGradient>
<radialGradient id="paint23_radial_2187_8053" cx="0" cy="0" r="1" gradientUnits="userSpaceOnUse" gradientTransform="translate(196.214 13.5466) scale(119.057 100.355)">
<stop stop-color="#1A1F3A"/>
<stop offset="1" stop-color="#647394"/>
</radialGradient>
<radialGradient id="paint24_radial_2187_8053" cx="0" cy="0" r="1" gradientUnits="userSpaceOnUse" gradientTransform="translate(38.7431 -43.1901) scale(293.604 247.482)">
<stop stop-color="#7C8FB2"/>
<stop offset="1" stop-color="#515682"/>
</radialGradient>
<radialGradient id="paint25_radial_2187_8053" cx="0" cy="0" r="1" gradientUnits="userSpaceOnUse" gradientTransform="translate(240.346 43.9371) scale(23.559 19.8581)">
<stop stop-color="#5A6084"/>
<stop offset="1" stop-color="#323B63"/>
</radialGradient>
<radialGradient id="paint26_radial_2187_8053" cx="0" cy="0" r="1" gradientUnits="userSpaceOnUse" gradientTransform="translate(46.6523 50.4271) scale(14.8926 12.5532)">
<stop stop-color="#5A6084"/>
<stop offset="1" stop-color="#323B63"/>
</radialGradient>
<radialGradient id="paint27_radial_2187_8053" cx="0" cy="0" r="1" gradientUnits="userSpaceOnUse" gradientTransform="translate(37.3968 42.6941) scale(25.6204 21.5957)">
<stop stop-color="#5A6084"/>
<stop offset="1" stop-color="#323B63"/>
</radialGradient>
<linearGradient id="paint28_linear_2187_8053" x1="130.5" y1="23" x2="130.5" y2="47" gradientUnits="userSpaceOnUse">
<stop stop-color="white"/>
<stop offset="1" stop-color="white" stop-opacity="0"/>
</linearGradient>
</defs>
</svg>
